<?xml version="1.0" encoding="UTF-8"?><svg id="Layer_1" xmlns="http://www.w3.org/2000/svg" viewBox="0 0 873.73 156.1"><defs><style>.cls-1{fill:#447099;}.cls-2{fill:#414142;}.cls-3{fill:#ed6430;}</style></defs><path class="cls-2" d="M325.07,48.74c5.95,0,10.29,1.15,13.02,3.48,2.73,2.33,4.12,5.63,4.12,9.97,0,1.94-.32,3.8-.97,5.56s-1.69,3.3-3.12,4.63c-1.43,1.33-3.3,2.4-5.63,3.16-2.33.75-5.17,1.15-8.54,1.15h-5.6v18.11h-5.34v-46.05h12.05ZM324.56,53.3h-6.17v18.79h5.02c2.94,0,5.38-.32,7.35-.93,1.97-.65,3.44-1.65,4.41-3.08,1-1.43,1.47-3.3,1.47-5.67,0-3.08-.97-5.34-2.94-6.85-1.94-1.51-4.99-2.26-9.15-2.26Z"/><path class="cls-2" d="M362.37,59.72c4.12,0,7.17.93,9.18,2.76,2.01,1.87,2.98,4.81,2.98,8.86v23.49h-3.8l-1-5.09h-.25c-.97,1.26-1.97,2.33-3.01,3.16-1.04.86-2.26,1.51-3.66,1.94-1.36.43-3.05.65-5.06.65-2.12,0-3.98-.36-5.6-1.11-1.61-.75-2.91-1.87-3.84-3.34-.93-1.51-1.4-3.37-1.4-5.67,0-3.44,1.36-6.1,4.09-7.93,2.73-1.87,6.89-2.87,12.48-3.01l5.95-.25v-2.12c0-2.98-.65-5.09-1.94-6.28-1.29-1.18-3.08-1.79-5.42-1.79-1.79,0-3.52.25-5.17.79-1.65.54-3.19,1.15-4.66,1.87l-1.61-3.98c1.54-.79,3.34-1.47,5.34-2.04s4.16-.9,6.38-.9ZM369.36,77.8l-5.27.22c-4.3.18-7.35.86-9.11,2.12s-2.65,2.98-2.65,5.27c0,1.97.61,3.44,1.79,4.38s2.8,1.43,4.77,1.43c3.08,0,5.6-.86,7.53-2.55s2.94-4.27,2.94-7.68v-3.19h0Z"/><path class="cls-2" d="M397.56,95.48c-3.12,0-5.85-.65-8.21-1.94-2.37-1.29-4.23-3.23-5.56-5.85-1.33-2.62-1.97-5.95-1.97-9.94,0-4.2.68-7.6,2.08-10.26,1.4-2.65,3.34-4.63,5.77-5.92,2.47-1.29,5.24-1.94,8.39-1.94,1.72,0,3.37.18,4.99.54,1.61.36,2.94.79,3.95,1.29l-1.58,4.38c-1.04-.43-2.26-.79-3.66-1.15-1.36-.32-2.65-.5-3.87-.5-2.4,0-4.38.5-5.99,1.54-1.58,1.04-2.76,2.55-3.55,4.56s-1.18,4.45-1.18,7.39.39,5.17,1.15,7.17c.75,1.97,1.9,3.48,3.44,4.52,1.51,1.04,3.44,1.58,5.74,1.58,1.83,0,3.48-.18,4.95-.57,1.47-.39,2.8-.86,4.02-1.36v4.66c-1.15.57-2.44,1.04-3.87,1.36s-3.08.43-5.02.43Z"/><path class="cls-2" d="M418.22,45.77v25.47c0,.82-.04,1.87-.11,3.08-.07,1.22-.11,2.26-.14,3.19h.22c.43-.54,1.08-1.36,1.94-2.44.86-1.08,1.58-1.94,2.15-2.58l11.48-12.23h6.13l-13.92,14.74,14.92,19.8h-6.31l-12.2-16.36-4.2,3.84v12.52h-5.2v-49.03h5.24Z"/><path class="cls-2" d="M458.24,59.72c4.12,0,7.17.93,9.18,2.76,2.01,1.87,2.98,4.81,2.98,8.86v23.49h-3.8l-1-5.09h-.25c-.97,1.26-1.97,2.33-3.01,3.16-1.04.86-2.26,1.51-3.66,1.94-1.36.43-3.05.65-5.06.65-2.12,0-3.98-.36-5.6-1.11-1.61-.75-2.91-1.87-3.84-3.34-.93-1.51-1.4-3.37-1.4-5.67,0-3.44,1.36-6.1,4.09-7.93,2.73-1.87,6.89-2.87,12.48-3.01l5.95-.25v-2.12c0-2.98-.65-5.09-1.94-6.28-1.29-1.18-3.08-1.79-5.42-1.79-1.79,0-3.52.25-5.17.79-1.65.54-3.19,1.15-4.66,1.87l-1.61-3.98c1.54-.79,3.34-1.47,5.34-2.04s4.16-.9,6.38-.9ZM465.24,77.8l-5.27.22c-4.3.18-7.35.86-9.11,2.12-1.76,1.26-2.65,2.98-2.65,5.27,0,1.97.61,3.44,1.79,4.38s2.8,1.43,4.77,1.43c3.08,0,5.6-.86,7.53-2.55s2.94-4.27,2.94-7.68v-3.19Z"/><path class="cls-2" d="M489.23,110.33c-4.56,0-8.03-.86-10.51-2.55-2.47-1.69-3.69-4.05-3.69-7.1,0-2.15.68-4.02,2.08-5.56,1.36-1.54,3.3-2.55,5.74-3.05-.9-.43-1.69-1.04-2.33-1.9-.65-.82-.97-1.79-.97-2.91,0-1.26.36-2.37,1.04-3.34.72-.97,1.79-1.87,3.23-2.76-1.79-.75-3.26-1.97-4.41-3.73-1.11-1.76-1.69-3.8-1.69-6.13,0-2.47.5-4.59,1.54-6.35,1.04-1.76,2.51-3.08,4.48-4.02,1.94-.93,4.3-1.4,7.1-1.4.61,0,1.22.04,1.83.07.61.04,1.22.14,1.79.22s1.08.22,1.47.32h11.84v3.37l-6.38.79c.65.82,1.15,1.79,1.58,2.98.43,1.15.65,2.44.65,3.84,0,3.44-1.18,6.17-3.52,8.21-2.33,2.04-5.52,3.05-9.61,3.05-.97,0-1.94-.07-2.98-.25-1.04.57-1.83,1.18-2.33,1.9s-.79,1.51-.79,2.4c0,.68.22,1.22.61,1.61.39.39,1,.68,1.79.86s1.72.25,2.8.25h6.1c3.77,0,6.64.79,8.64,2.37,2.01,1.58,3.01,3.87,3.01,6.89,0,3.84-1.54,6.74-4.66,8.79-3.08,2.12-7.57,3.12-13.45,3.12ZM489.38,106.24c2.87,0,5.24-.29,7.1-.86,1.87-.57,3.3-1.4,4.23-2.47.93-1.08,1.4-2.37,1.4-3.87,0-1.4-.32-2.44-.93-3.12-.65-.72-1.54-1.18-2.76-1.43-1.22-.25-2.73-.36-4.48-.36h-5.99c-1.54,0-2.91.25-4.05.72-1.15.47-2.04,1.18-2.65,2.15-.61.93-.93,2.12-.93,3.52,0,1.87.79,3.3,2.37,4.27,1.58.97,3.8,1.47,6.71,1.47ZM490.74,78.62c2.51,0,4.38-.65,5.63-1.9,1.26-1.26,1.9-3.08,1.9-5.52,0-2.58-.65-4.52-1.94-5.81-1.29-1.29-3.16-1.94-5.67-1.94s-4.23.68-5.52,2.01c-1.29,1.33-1.94,3.3-1.94,5.85,0,2.37.65,4.16,1.94,5.42,1.33,1.29,3.19,1.9,5.6,1.9Z"/><path class="cls-2" d="M526.32,59.65c2.94,0,5.45.65,7.57,1.94,2.12,1.29,3.69,3.12,4.81,5.45,1.11,2.33,1.69,5.09,1.69,8.21v3.26h-23.85c.07,4.05,1.08,7.14,3.01,9.25,1.94,2.12,4.7,3.19,8.25,3.19,2.19,0,4.12-.22,5.81-.61,1.69-.39,3.41-1,5.24-1.76v4.63c-1.76.79-3.48,1.36-5.2,1.69-1.72.36-3.73.54-6.06.54-3.34,0-6.21-.68-8.68-2.04-2.47-1.36-4.38-3.34-5.74-5.99-1.36-2.62-2.04-5.85-2.04-9.65s.61-6.92,1.87-9.65c1.26-2.73,3.01-4.81,5.31-6.28,2.26-1.43,4.95-2.19,8.03-2.19ZM526.25,63.95c-2.8,0-5.02.9-6.67,2.73-1.65,1.83-2.65,4.38-2.98,7.68h18.29c-.04-2.04-.36-3.87-.97-5.45-.61-1.58-1.58-2.8-2.83-3.66-1.22-.86-2.83-1.29-4.84-1.29Z"/><path class="cls-2" d="M583.89,94.83l-15.49-40.78h-.25c.07.86.14,1.9.22,3.16.07,1.26.11,2.58.14,4.05.04,1.47.07,2.94.07,4.45v29.12h-4.99v-46.09h7.93l14.6,38.34h.22l14.85-38.34h7.89v46.09h-5.31v-29.52c0-1.36.04-2.73.07-4.12.04-1.36.11-2.69.14-3.91s.14-2.3.18-3.19h-.25l-15.67,40.75h-4.34Z"/><path class="cls-2" d="M632.2,59.72c4.12,0,7.17.93,9.18,2.76,2.01,1.87,2.98,4.81,2.98,8.86v23.49h-3.8l-1-5.09h-.25c-.97,1.26-1.97,2.33-3.01,3.16-1.04.86-2.26,1.51-3.66,1.94-1.36.43-3.05.65-5.06.65-2.12,0-3.98-.36-5.6-1.11-1.61-.75-2.91-1.87-3.84-3.34-.93-1.51-1.4-3.37-1.4-5.67,0-3.44,1.36-6.1,4.09-7.93,2.73-1.87,6.89-2.87,12.48-3.01l5.95-.25v-2.12c0-2.98-.65-5.09-1.94-6.28-1.29-1.18-3.08-1.79-5.42-1.79-1.79,0-3.52.25-5.17.79-1.65.54-3.19,1.15-4.66,1.87l-1.61-3.98c1.54-.79,3.34-1.47,5.34-2.04s4.16-.9,6.38-.9ZM639.2,77.8l-5.27.22c-4.3.18-7.35.86-9.11,2.12-1.76,1.26-2.65,2.98-2.65,5.27,0,1.97.61,3.44,1.79,4.38,1.18.93,2.8,1.43,4.77,1.43,3.08,0,5.6-.86,7.53-2.55s2.94-4.27,2.94-7.68v-3.19Z"/><path class="cls-2" d="M669.9,59.65c4.09,0,7.21,1,9.29,3.01,2.12,2.01,3.16,5.24,3.16,9.65v22.53h-5.17v-22.17c0-2.87-.65-5.02-1.97-6.46-1.33-1.43-3.34-2.15-6.03-2.15-3.84,0-6.53,1.08-8.07,3.26-1.54,2.15-2.33,5.31-2.33,9.43v18.08h-5.24v-34.54h4.23l.79,4.99h.29c.75-1.22,1.69-2.26,2.8-3.08,1.15-.82,2.4-1.47,3.8-1.9,1.4-.43,2.91-.65,4.45-.65Z"/><path class="cls-2" d="M704.44,59.72c4.12,0,7.17.93,9.18,2.76,2.01,1.87,2.98,4.81,2.98,8.86v23.49h-3.8l-1-5.09h-.25c-.97,1.26-1.97,2.33-3.01,3.16-1.04.86-2.26,1.51-3.66,1.94-1.36.43-3.05.65-5.06.65-2.12,0-3.98-.36-5.6-1.11s-2.91-1.87-3.84-3.34c-.93-1.51-1.4-3.37-1.4-5.67,0-3.44,1.36-6.1,4.09-7.93,2.73-1.87,6.89-2.87,12.48-3.01l5.95-.25v-2.12c0-2.98-.65-5.09-1.94-6.28-1.29-1.18-3.08-1.79-5.42-1.79-1.79,0-3.52.25-5.17.79-1.65.54-3.19,1.15-4.66,1.87l-1.61-3.98c1.54-.79,3.34-1.47,5.34-2.04s4.16-.9,6.38-.9ZM711.44,77.8l-5.27.22c-4.3.18-7.35.86-9.11,2.12-1.76,1.26-2.65,2.98-2.65,5.27,0,1.97.61,3.44,1.79,4.38s2.8,1.43,4.77,1.43c3.08,0,5.6-.86,7.53-2.55,1.94-1.69,2.94-4.27,2.94-7.68v-3.19Z"/><path class="cls-2" d="M735.43,110.33c-4.56,0-8.03-.86-10.51-2.55-2.47-1.69-3.69-4.05-3.69-7.1,0-2.15.68-4.02,2.08-5.56,1.36-1.54,3.3-2.55,5.74-3.05-.9-.43-1.69-1.04-2.33-1.9-.65-.82-.97-1.79-.97-2.91,0-1.26.36-2.37,1.04-3.34.72-.97,1.79-1.87,3.23-2.76-1.79-.75-3.26-1.97-4.41-3.73-1.11-1.76-1.69-3.8-1.69-6.13,0-2.47.5-4.59,1.54-6.35,1.04-1.76,2.51-3.08,4.48-4.02,1.94-.93,4.3-1.4,7.1-1.4.61,0,1.22.04,1.83.07.61.04,1.22.14,1.79.22s1.08.22,1.47.32h11.84v3.37l-6.38.79c.65.82,1.15,1.79,1.58,2.98.43,1.15.65,2.44.65,3.84,0,3.44-1.18,6.17-3.52,8.21-2.33,2.04-5.52,3.05-9.61,3.05-.97,0-1.94-.07-2.98-.25-1.04.57-1.83,1.18-2.33,1.9s-.79,1.51-.79,2.4c0,.68.22,1.22.61,1.61.39.39,1,.68,1.79.86.79.18,1.72.25,2.8.25h6.1c3.77,0,6.64.79,8.64,2.37,2.01,1.58,3.01,3.87,3.01,6.89,0,3.84-1.54,6.74-4.66,8.79-3.08,2.12-7.57,3.12-13.45,3.12ZM735.58,106.24c2.87,0,5.24-.29,7.1-.86,1.87-.57,3.3-1.4,4.23-2.47.93-1.08,1.4-2.37,1.4-3.87,0-1.4-.32-2.44-.93-3.12-.65-.72-1.54-1.18-2.76-1.43-1.22-.25-2.73-.36-4.48-.36h-5.99c-1.54,0-2.91.25-4.05.72-1.15.47-2.04,1.18-2.65,2.15-.61.93-.93,2.12-.93,3.52,0,1.87.79,3.3,2.37,4.27,1.58.97,3.8,1.47,6.71,1.47ZM736.94,78.62c2.51,0,4.38-.65,5.63-1.9,1.26-1.26,1.9-3.08,1.9-5.52,0-2.58-.65-4.52-1.94-5.81-1.29-1.29-3.16-1.94-5.67-1.94s-4.23.68-5.52,2.01c-1.29,1.33-1.94,3.3-1.94,5.85,0,2.37.65,4.16,1.94,5.42,1.33,1.29,3.19,1.9,5.6,1.9Z"/><path class="cls-2" d="M772.52,59.65c2.94,0,5.45.65,7.57,1.94,2.12,1.29,3.69,3.12,4.81,5.45,1.11,2.33,1.69,5.09,1.69,8.21v3.26h-23.85c.07,4.05,1.08,7.14,3.01,9.25,1.94,2.12,4.7,3.19,8.25,3.19,2.19,0,4.12-.22,5.81-.61,1.69-.39,3.41-1,5.24-1.76v4.63c-1.76.79-3.48,1.36-5.2,1.69-1.72.36-3.73.54-6.06.54-3.34,0-6.21-.68-8.68-2.04-2.47-1.36-4.38-3.34-5.74-5.99-1.36-2.62-2.04-5.85-2.04-9.65s.61-6.92,1.87-9.65c1.26-2.73,3.01-4.81,5.31-6.28,2.26-1.43,4.95-2.19,8.03-2.19ZM772.45,63.95c-2.8,0-5.02.9-6.67,2.73-1.65,1.83-2.65,4.38-2.98,7.68h18.29c-.04-2.04-.36-3.87-.97-5.45-.61-1.58-1.58-2.8-2.83-3.66-1.22-.86-2.87-1.29-4.84-1.29Z"/><path class="cls-2" d="M809.57,59.65c.68,0,1.43.04,2.19.11s1.43.18,2.01.29l-.65,4.84c-.57-.14-1.18-.25-1.9-.36-.68-.07-1.36-.14-1.94-.14-1.4,0-2.69.29-3.91.82-1.22.57-2.3,1.36-3.23,2.4-.93,1.04-1.65,2.3-2.19,3.77-.54,1.47-.79,3.08-.79,4.88v18.54h-5.27v-34.51h4.34l.57,6.38h.22c.72-1.29,1.58-2.44,2.58-3.52s2.19-1.9,3.52-2.55c1.29-.65,2.8-.97,4.45-.97Z"/><path class="cls-2" d="M193.28,60.12c11.01,0,18.77,7.49,18.77,17.9s-7.76,17.84-18.77,17.84-18.63-7.49-18.63-17.84,7.63-17.9,18.63-17.9M193.28,86.91c5.24,0,8.82-3.32,8.82-8.89s-3.98-8.95-8.82-8.95-8.69,3.25-8.69,8.95c0,5.04,3.52,8.89,8.69,8.89"/><path class="cls-2" d="M254.34,46.02c3.12,0,5.37,2.23,5.37,5.18,0,3.1-2.25,5.33-5.37,5.33-3.38,0-5.44-2.23-5.44-5.33s2.25-5.18,5.44-5.18M249.5,60.77h9.62v34.48h-9.62v-34.48Z"/><path class="cls-2" d="M263.45,60.77h6.57v-8.02h9.62v8.02h10.39v8.95h-10.39v11.2c0,4.18.93,5.77,3.52,5.77,2.25,0,4.05-.8,5.9-2.25l4.9,6.07c-2.39,2.52-7.02,5.13-11.73,5.13-7.23,0-12.2-3.91-12.2-11.87v-14.06h-6.57v-8.95h0Z"/><path class="cls-2" d="M244.52,64.98c-2.36-2.26-7.24-5.18-14.19-5.18-9.89,0-15.7,4.09-15.7,10.79,0,10.41,16.57,10.66,20.49,12.95.71.39,1.13.95.87,1.75-.74,2.31-10.02,3.43-16.87-3.19l-5.59,6.66c2.49,3.3,7.98,7.16,16.88,7.16,8.27,0,15.42-3.35,15.42-10.99,0-6.85-6.38-9.61-12.05-11.22-1.61-.44-3.17-.81-4.53-1.17-2.24-.57-5.23-1.22-4.75-2.89.87-3.04,10.84-1.13,14.33,2.06l5.7-6.73h-.01Z"/><path class="cls-2" d="M137.2,60.85h9.63v1.8c1.79-1.66,5.05-2.52,7.71-2.52,10.49,0,17.01,7.24,17.01,17.47s-6.78,18.33-17.27,18.33c-3.32,0-6.38-.53-7.44-1.73v14.48h-9.63v-47.83h0ZM146.83,73v11.03c1.06,1.59,3.39,2.92,6.11,2.92,5.38,0,8.63-3.39,8.63-8.63,0-6.11-3.05-9.23-8.11-9.23-3.19,0-5.38,1.59-6.64,3.92"/><polygon id="fullLogo-8" class="cls-3" points="72.53 71.07 75.38 69.8 88.26 64.06 91.07 62.81 122.17 48.94 122.17 65.67 109.59 71.07 106.75 69.8 119.9 64.15 119.9 52.47 93.87 64.06 91.07 65.32 78.24 71.03 75.4 72.3 66.33 76.34 66.33 79.34 75.26 83.33 78.1 84.59 91.26 90.46 94.06 91.7 119.9 103.22 119.9 91.41 106.89 85.82 109.74 84.56 122.17 89.89 122.17 106.74 91.28 92.97 88.48 91.72 75.24 85.82 72.4 84.56 64.05 80.83 64.05 74.85 72.53 71.07"/><polygon class="cls-3" points="93.96 77.78 106.73 72.3 103.88 71.03 88.16 77.78 104.02 84.59 106.87 83.33 93.96 77.78"/><polygon id="fullLogo-9" class="cls-1" points="75.26 83.33 78.1 84.59 91.07 79.03 88.17 77.78 75.26 83.33"/><polygon id="fullLogo-10" class="cls-1" points="78.24 71.03 75.4 72.3 88.17 77.78 91.07 76.54 78.24 71.03"/><polygon id="fullLogo-11" class="cls-1" points="109.59 71.07 106.75 69.8 93.87 64.06 91.07 62.81 59.96 48.94 59.96 65.67 72.53 71.07 75.38 69.8 62.23 64.15 62.23 52.47 88.26 64.06 91.07 65.32 103.89 71.03 106.73 72.3 115.8 76.34 115.8 79.34 106.87 83.33 104.03 84.59 90.87 90.46 88.07 91.7 62.23 103.22 62.23 91.41 75.24 85.82 72.4 84.56 59.96 89.89 59.96 106.74 90.86 92.97 93.65 91.72 106.89 85.82 109.74 84.56 118.08 80.83 118.08 74.85 109.59 71.07"/><path class="cls-2" d="M300.5,63.74c0,1.72-1.35,3.07-3.11,3.07s-3.13-1.35-3.13-3.07,1.39-3.04,3.13-3.04,3.11,1.35,3.11,3.04ZM295.03,63.74c0,1.35,1,2.43,2.37,2.43s2.32-1.07,2.32-2.41-.98-2.45-2.34-2.45-2.35,1.09-2.35,2.43ZM296.9,65.33h-.7v-3.04c.28-.06.67-.09,1.17-.09.58,0,.84.09,1.06.22.17.13.3.37.3.67,0,.33-.26.59-.63.7v.04c.3.11.46.33.55.74.09.46.15.65.22.76h-.76c-.09-.11-.15-.39-.24-.74-.06-.33-.24-.48-.63-.48h-.33v1.22h0ZM296.92,63.61h.33c.39,0,.7-.13.7-.44,0-.28-.2-.46-.65-.46-.18,0-.32.02-.39.04v.87h0Z"/></svg>