<?xml version="1.0" encoding="UTF-8"?><svg id="Logo" xmlns="http://www.w3.org/2000/svg" viewBox="0 0 1095.98 263.62"><defs><style>.cls-1{fill:#fff;}.cls-2{fill:none;stroke:#fff;stroke-miterlimit:10;stroke-width:2px;}</style></defs><path class="cls-1" d="M966.11,93.32h24.16c5.88,0,13.63,0,17.64,2.43,4.39,2.61,7.84,7.37,7.84,13.9,0,7.09-3.73,12.41-9.89,14.93v.19c8.21,1.68,12.69,7.84,12.69,16.05,0,9.79-7,19.13-20.25,19.13h-32.19v-66.62ZM974.97,121.96h17.74c10.07,0,14.18-3.64,14.18-10.64,0-9.24-6.53-10.54-14.18-10.54h-17.74v21.18ZM974.97,152.47h22.21c7.65,0,12.5-4.66,12.5-11.94,0-8.68-7-11.1-14.47-11.1h-20.25v23.05Z"/><path class="cls-1" d="M1041.22,126.65c0,27.99-22.69,50.68-50.68,50.68s-50.67-22.69-50.67-50.68,22.69-50.67,50.67-50.67,50.68,22.68,50.68,50.67ZM990.54,68.26c-32.23,0-58.37,26.13-58.37,58.37s26.13,58.37,58.37,58.37,58.38-26.13,58.38-58.37-26.13-58.37-58.38-58.37Z"/><rect class="cls-1" x="932.29" y="197.31" width="116.5" height="7.66"/><path class="cls-1" d="M1045.15,188.88c.14,0,.28,0,.41-.01.12,0,.24-.03.34-.08.1-.05.18-.12.24-.2.06-.09.08-.21.08-.38,0-.14-.02-.25-.08-.32-.05-.09-.12-.14-.21-.18-.09-.05-.17-.08-.29-.1-.11,0-.21-.02-.32-.02h-.84v1.29h.66ZM1045.43,187.07c.49,0,.84.1,1.07.28.23.2.36.49.36.88,0,.37-.11.63-.31.81-.21.17-.46.27-.77.3l1.16,1.79h-.67l-1.11-1.75h-.67v1.75h-.64v-4.06h1.58ZM1042.56,190.27c.14.37.34.68.6.95.25.26.56.48.91.63.34.15.73.22,1.13.22s.79-.07,1.13-.22c.35-.15.65-.36.91-.63.25-.27.45-.58.6-.95.15-.36.22-.75.22-1.17s-.07-.81-.22-1.17c-.14-.36-.35-.67-.6-.94-.26-.26-.57-.47-.91-.62-.34-.15-.72-.23-1.13-.23s-.79.08-1.13.23c-.36.15-.66.36-.91.62-.26.27-.46.58-.6.94-.15.36-.22.74-.22,1.17s.07.81.22,1.17M1041.99,187.71c.19-.42.44-.77.76-1.09.32-.31.69-.55,1.12-.73.42-.18.88-.26,1.35-.26s.93.08,1.36.26c.41.18.78.41,1.09.73.32.32.58.67.76,1.09.19.42.28.89.28,1.38s-.09.96-.28,1.38c-.18.43-.44.79-.76,1.11-.31.32-.68.56-1.09.74-.43.17-.88.26-1.36.26s-.92-.09-1.35-.26c-.43-.18-.8-.41-1.12-.74-.32-.31-.57-.68-.76-1.11-.19-.42-.27-.88-.27-1.38s.08-.96.27-1.38"/><path class="cls-1" d="M946.41,42.59c-.28-.44-.62-.83-1.03-1.17-.41-.33-.88-.59-1.4-.78-.52-.19-1.07-.28-1.64-.28-1.04,0-1.93.2-2.66.6-.73.4-1.32.94-1.77,1.62-.45.68-.78,1.45-.99,2.32-.21.87-.31,1.76-.31,2.69s.1,1.75.31,2.58c.21.84.54,1.59.99,2.26.45.67,1.04,1.2,1.77,1.61.73.4,1.61.6,2.66.6,1.42,0,2.52-.43,3.32-1.3.8-.87,1.28-2.01,1.46-3.42h4.49c-.12,1.32-.42,2.51-.91,3.57-.49,1.06-1.14,1.97-1.95,2.71-.81.75-1.75,1.32-2.83,1.71-1.08.39-2.27.59-3.57.59-1.61,0-3.06-.28-4.35-.84-1.29-.56-2.38-1.33-3.26-2.32-.88-.98-1.56-2.14-2.04-3.47-.47-1.33-.71-2.76-.71-4.29s.24-3.04.71-4.38c.47-1.35,1.15-2.52,2.04-3.53.88-1,1.97-1.79,3.26-2.36,1.29-.57,2.74-.86,4.35-.86,1.16,0,2.26.17,3.29.5,1.03.33,1.96.82,2.77,1.46.82.64,1.49,1.43,2.02,2.37.53.94.87,2.03,1,3.25h-4.49c-.08-.53-.26-1.02-.53-1.46Z"/><path class="cls-1" d="M957.64,54.38c.63.61,1.53.91,2.71.91.85,0,1.57-.21,2.18-.63.61-.42.98-.87,1.12-1.34h3.69c-.59,1.83-1.5,3.14-2.72,3.92-1.22.79-2.7,1.18-4.43,1.18-1.2,0-2.28-.19-3.25-.57-.96-.38-1.78-.93-2.45-1.64-.67-.71-1.19-1.55-1.55-2.54-.36-.98-.55-2.07-.55-3.25s.19-2.2.56-3.19c.37-.98.91-1.83,1.59-2.55.69-.72,1.51-1.28,2.46-1.7.95-.41,2.01-.62,3.17-.62,1.3,0,2.43.25,3.39.75.96.5,1.76,1.18,2.37,2.02.62.85,1.07,1.81,1.34,2.89.27,1.08.37,2.21.29,3.39h-11c.06,1.36.4,2.34,1.03,2.95ZM962.38,46.35c-.5-.55-1.27-.83-2.29-.83-.67,0-1.22.11-1.67.34-.44.23-.8.51-1.06.84-.27.34-.45.69-.56,1.06-.11.37-.17.71-.19,1h6.82c-.2-1.06-.55-1.87-1.05-2.42Z"/><path class="cls-1" d="M973.49,42.78v2.83h.06c.2-.47.46-.91.8-1.31.33-.4.72-.75,1.15-1.03.43-.28.9-.51,1.39-.66.49-.16,1-.23,1.53-.23.28,0,.58.05.92.15v3.89c-.2-.04-.43-.07-.71-.1-.27-.03-.54-.04-.8-.04-.77,0-1.42.13-1.95.38-.53.25-.96.6-1.28,1.05-.32.44-.56.96-.69,1.55-.14.59-.21,1.23-.21,1.92v6.88h-4.19v-15.25h3.98Z"/><path class="cls-1" d="M990.54,42.78v2.8h-3.07v7.55c0,.71.12,1.18.36,1.42.24.24.71.35,1.41.35.24,0,.46,0,.68-.03.22-.02.42-.05.62-.09v3.25c-.35.06-.75.1-1.18.12-.43.02-.85.03-1.27.03-.65,0-1.26-.04-1.84-.13-.58-.09-1.09-.26-1.53-.52-.44-.26-.79-.62-1.05-1.09-.26-.47-.38-1.09-.38-1.86v-9h-2.54v-2.8h2.54v-4.57h4.19v4.57h3.07Z"/><path class="cls-1" d="M992.98,40.42v-3.45h4.19v3.45h-4.19ZM997.17,42.78v15.25h-4.19v-15.25h4.19Z"/><path class="cls-1" d="M998.83,45.58v-2.8h2.51v-1.18c0-1.36.42-2.47,1.27-3.33.85-.87,2.13-1.3,3.84-1.3.37,0,.75.01,1.12.04.37.03.74.05,1.09.07v3.13c-.49-.06-1-.09-1.53-.09-.57,0-.98.13-1.22.4-.25.27-.37.71-.37,1.34v.91h2.89v2.8h-2.89v12.45h-4.19v-12.45h-2.51Z"/><path class="cls-1" d="M1011.26,40.42v-3.45h4.19v3.45h-4.19ZM1015.45,42.78v15.25h-4.19v-15.25h4.19Z"/><path class="cls-1" d="M1022.06,54.38c.63.61,1.54.91,2.71.91.85,0,1.57-.21,2.18-.63.61-.42.98-.87,1.12-1.34h3.69c-.59,1.83-1.49,3.14-2.71,3.92-1.22.79-2.7,1.18-4.43,1.18-1.2,0-2.28-.19-3.25-.57-.96-.38-1.78-.93-2.45-1.64-.67-.71-1.19-1.55-1.55-2.54-.36-.98-.55-2.07-.55-3.25s.19-2.2.56-3.19c.37-.98.9-1.83,1.59-2.55.69-.72,1.51-1.28,2.46-1.7.95-.41,2.01-.62,3.17-.62,1.3,0,2.43.25,3.39.75.96.5,1.75,1.18,2.38,2.02.62.85,1.07,1.81,1.34,2.89.28,1.08.37,2.21.3,3.39h-11.01c.06,1.36.4,2.34,1.03,2.95ZM1026.79,46.35c-.5-.55-1.26-.83-2.29-.83-.67,0-1.22.11-1.67.34-.44.23-.8.51-1.06.84-.27.34-.45.69-.56,1.06-.11.37-.17.71-.19,1h6.81c-.19-1.06-.54-1.87-1.05-2.42Z"/><path class="cls-1" d="M1044.75,56.09c-.49.83-1.14,1.42-1.93,1.79-.8.36-1.69.55-2.7.55-1.14,0-2.14-.22-3.01-.66-.87-.44-1.58-1.04-2.14-1.8-.56-.76-.98-1.63-1.27-2.61-.28-.98-.43-2.01-.43-3.07s.14-2.01.43-2.97c.28-.95.71-1.79,1.27-2.52.56-.73,1.26-1.31,2.11-1.75.85-.44,1.83-.66,2.95-.66.9,0,1.76.19,2.58.57.82.38,1.46.95,1.93,1.7h.06v-7.67h4.19v21.07h-3.98v-1.95h-.06ZM1044.57,48.55c-.12-.58-.32-1.09-.6-1.53-.28-.44-.65-.8-1.11-1.08-.45-.28-1.02-.41-1.71-.41s-1.27.14-1.74.41c-.47.28-.85.64-1.14,1.09-.28.45-.49.97-.62,1.55-.13.58-.19,1.19-.19,1.82,0,.59.07,1.18.2,1.77.14.59.36,1.12.66,1.58.31.46.69.84,1.15,1.12.46.29,1.02.43,1.67.43.69,0,1.26-.14,1.73-.41.46-.28.83-.64,1.11-1.11.27-.46.47-.99.59-1.58.12-.59.18-1.2.18-1.83s-.06-1.23-.18-1.82Z"/><path class="cls-1" d="M942.51,220c-.21-1.48-1.62-2.6-3.24-2.6-2.93,0-4.03,2.5-4.03,5.09s1.1,4.96,4.03,4.96c1.99,0,3.12-1.37,3.36-3.32h3.16c-.33,3.7-2.89,6.07-6.53,6.07-4.59,0-7.29-3.43-7.29-7.71s2.7-7.84,7.29-7.84c3.26,0,6,1.91,6.4,5.34h-3.16Z"/><path class="cls-1" d="M952.6,218.82c3.39,0,5.57,2.24,5.57,5.67s-2.18,5.65-5.57,5.65-5.55-2.24-5.55-5.65,2.18-5.67,5.55-5.67ZM952.6,227.92c2.01,0,2.62-1.73,2.62-3.43s-.6-3.45-2.62-3.45-2.6,1.72-2.6,3.45.61,3.43,2.6,3.43Z"/><path class="cls-1" d="M959.99,219.09h2.8v1.99h.04c.54-1.35,1.99-2.28,3.43-2.28.21,0,.45.04.64.1v2.74c-.27-.06-.71-.1-1.06-.1-2.16,0-2.91,1.56-2.91,3.45v4.84h-2.95v-10.74Z"/><path class="cls-1" d="M968.07,219.11h2.81v1.37h.04c.71-1.14,1.87-1.66,3.2-1.66,3.37,0,4.88,2.72,4.88,5.77,0,2.87-1.58,5.55-4.72,5.55-1.29,0-2.51-.56-3.22-1.62h-.04v5.11h-2.95v-14.52ZM976.04,224.51c0-1.71-.69-3.47-2.58-3.47s-2.55,1.72-2.55,3.47.66,3.41,2.58,3.41,2.55-1.66,2.55-3.41Z"/><path class="cls-1" d="M985.47,218.82c3.39,0,5.57,2.24,5.57,5.67s-2.18,5.65-5.57,5.65-5.54-2.24-5.54-5.65,2.18-5.67,5.54-5.67ZM985.47,227.92c2.02,0,2.62-1.73,2.62-3.43s-.6-3.45-2.62-3.45-2.6,1.72-2.6,3.45.6,3.43,2.6,3.43Z"/><path class="cls-1" d="M992.86,219.09h2.8v1.99h.04c.54-1.35,1.99-2.28,3.43-2.28.21,0,.46.04.64.1v2.74c-.27-.06-.71-.1-1.06-.1-2.16,0-2.91,1.56-2.91,3.45v4.84h-2.95v-10.74Z"/><path class="cls-1" d="M1000.65,222.41c.17-2.76,2.64-3.59,5.05-3.59,2.14,0,4.72.48,4.72,3.05v5.59c0,.98.1,1.95.38,2.39h-3c-.1-.33-.19-.69-.21-1.04-.93.98-2.3,1.33-3.61,1.33-2.04,0-3.66-1.02-3.66-3.22,0-2.43,1.83-3.01,3.66-3.26,1.81-.27,3.49-.21,3.49-1.41s-.88-1.45-1.91-1.45c-1.12,0-1.85.46-1.95,1.62h-2.95ZM1007.46,224.59c-.5.44-1.54.46-2.45.62-.91.18-1.75.5-1.75,1.58s.85,1.37,1.81,1.37c2.3,0,2.39-1.83,2.39-2.47v-1.1Z"/><path class="cls-1" d="M1016.37,219.11h2.16v1.97h-2.16v5.32c0,1,.25,1.25,1.25,1.25.31,0,.6-.02.92-.08v2.31c-.5.08-1.15.1-1.73.1-1.8,0-3.38-.42-3.38-2.56v-6.34h-1.79v-1.97h1.79v-3.22h2.95v3.22Z"/><path class="cls-1" d="M1023.71,217.44h-2.95v-2.43h2.95v2.43ZM1020.76,219.11h2.95v10.74h-2.95v-10.74Z"/><path class="cls-1" d="M1031.24,218.82c3.39,0,5.57,2.24,5.57,5.67s-2.19,5.65-5.57,5.65-5.54-2.24-5.54-5.65,2.18-5.67,5.54-5.67ZM1031.24,227.92c2.02,0,2.62-1.73,2.62-3.43s-.6-3.45-2.62-3.45-2.6,1.72-2.6,3.45.6,3.43,2.6,3.43Z"/><path class="cls-1" d="M1038.72,219.11h2.81v1.5h.06c.75-1.21,2.04-1.79,3.28-1.79,3.14,0,3.93,1.77,3.93,4.42v6.61h-2.95v-6.07c0-1.77-.52-2.64-1.89-2.64-1.6,0-2.29.9-2.29,3.08v5.63h-2.95v-10.74Z"/><line class="cls-2" x1="804.51" y1="35.26" x2="804.51" y2="228.36"/><path class="cls-1" d="M376.2,83.34c30.96,0,52.79,21.08,52.79,50.36s-21.82,50.18-52.79,50.18-52.42-21.08-52.42-50.18,21.45-50.36,52.42-50.36M376.2,158.7c14.74,0,24.81-9.33,24.81-25s-11.19-25.18-24.81-25.18-24.44,9.14-24.44,25.18c0,14.18,9.89,25,24.44,25"/><path class="cls-1" d="M547.97,43.68c8.77,0,15.11,6.28,15.11,14.57,0,8.71-6.34,14.98-15.11,14.98-9.51,0-15.3-6.27-15.3-14.98s6.34-14.57,15.3-14.57M534.35,85.17h27.05v97h-27.05v-97Z"/><path class="cls-1" d="M573.61,85.17h18.47v-22.57h27.05v22.57h29.23v25.18h-29.23v31.52c0,11.75,2.61,16.23,9.89,16.23,6.34,0,11.38-2.24,16.6-6.34l13.78,17.08c-6.72,7.09-19.75,14.44-32.99,14.44-20.33,0-34.32-11.01-34.32-33.39v-39.55h-18.47v-25.18Z"/><path class="cls-1" d="M520.35,97.03c-6.63-6.36-20.38-14.58-39.91-14.58-27.81,0-44.17,11.5-44.17,30.36,0,29.27,46.62,29.98,57.63,36.44,1.99,1.11,3.17,2.66,2.46,4.91-2.07,6.49-28.2,9.66-47.47-8.97l-15.72,18.74c7,9.27,22.44,20.15,47.49,20.15,23.27,0,43.39-9.43,43.39-30.92,0-19.27-17.95-27.02-33.91-31.56-4.54-1.25-8.93-2.28-12.73-3.3-6.29-1.61-14.72-3.42-13.37-8.12,2.45-8.54,30.5-3.19,40.31,5.79l16.03-18.93Z"/><path class="cls-1" d="M218.47,85.4h27.09v5.05c5.04-4.67,14.2-7.1,21.68-7.1,29.52,0,47.84,20.37,47.84,49.15s-19.06,51.57-48.59,51.57c-9.34,0-17.94-1.49-20.93-4.86v40.74h-27.09V85.4ZM245.57,119.59v31.02c2.99,4.48,9.53,8.22,17.19,8.22,15.14,0,24.29-9.53,24.29-24.29,0-17.19-8.59-25.97-22.8-25.97-8.97,0-15.13,4.48-18.68,11.02"/><polygon id="fullLogo-8" class="cls-1" points="36.55 114.15 44.56 110.58 80.78 94.44 88.68 90.92 176.18 51.91 176.18 98.96 140.8 114.15 132.8 110.58 169.8 94.69 169.8 61.82 96.58 94.44 88.68 97.97 52.61 114.04 44.61 117.61 19.09 128.98 19.09 137.42 44.22 148.63 52.22 152.2 89.24 168.69 97.1 172.19 169.8 204.59 169.8 171.37 133.19 155.66 141.2 152.09 176.18 167.11 176.18 214.49 89.27 175.75 81.42 172.25 44.17 155.66 36.17 152.09 12.69 141.62 12.69 124.79 36.55 114.15"/><polygon class="cls-1" points="96.83 133.03 132.75 117.61 124.74 114.04 80.51 133.03 125.13 152.2 133.14 148.63 96.83 133.03"/><polygon id="fullLogo-9" class="cls-1" points="44.22 148.63 52.22 152.2 88.68 136.54 80.52 133.03 44.22 148.63"/><polygon id="fullLogo-10" class="cls-1" points="52.61 114.04 44.61 117.61 80.52 133.03 88.68 129.53 52.61 114.04"/><polygon id="fullLogo-11" class="cls-1" points="140.8 114.15 132.8 110.58 96.58 94.44 88.68 90.92 1.18 51.91 1.18 98.96 36.55 114.15 44.56 110.58 7.57 94.69 7.57 61.82 80.78 94.44 88.68 97.97 124.75 114.04 132.75 117.61 158.28 128.98 158.28 137.42 133.15 148.63 125.14 152.2 88.12 168.69 80.27 172.19 7.57 204.59 7.57 171.37 44.17 155.66 36.17 152.09 1.18 167.11 1.18 214.49 88.09 175.75 95.94 172.25 133.19 155.66 141.2 152.09 164.67 141.62 164.67 124.79 140.8 114.15"/><path class="cls-1" d="M677.82,93.54c0,4.85-3.81,8.65-8.76,8.65s-8.81-3.81-8.81-8.65,3.91-8.55,8.81-8.55,8.76,3.81,8.76,8.55ZM662.44,93.54c0,3.81,2.81,6.83,6.67,6.83s6.52-3.02,6.52-6.78-2.76-6.88-6.57-6.88-6.62,3.08-6.62,6.83ZM667.71,98.02h-1.98v-8.55c.78-.16,1.88-.26,3.28-.26,1.62,0,2.35.26,2.97.63.47.36.83,1.04.83,1.88,0,.94-.73,1.67-1.77,1.98v.1c.83.31,1.3.94,1.56,2.08.26,1.3.42,1.82.63,2.14h-2.14c-.26-.31-.42-1.09-.68-2.08-.16-.94-.68-1.36-1.77-1.36h-.94v3.44ZM667.76,93.17h.94c1.09,0,1.98-.36,1.98-1.25,0-.78-.57-1.3-1.82-1.3-.52,0-.89.05-1.09.1v2.45Z"/></svg>